<svg width="75" height="75" viewBox="0 0 75 75" fill="none" xmlns="http://www.w3.org/2000/svg">
<circle cx="37.5" cy="37.5" r="37.5" fill="#D9D9D9"/>
<path d="M56.2578 57.0402V52.2579C56.2578 49.7213 55.2502 47.2886 53.4565 45.4949C51.6628 43.7012 49.23 42.6935 46.6934 42.6935H27.5645C25.0278 42.6935 22.595 43.7012 20.8014 45.4949C19.0077 47.2886 18 49.7213 18 52.2579V57.0402" stroke="black" stroke-width="5" stroke-linecap="round" stroke-linejoin="round"/>
<path d="M37.1282 33.1289C42.4105 33.1289 46.6927 28.8467 46.6927 23.5644C46.6927 18.2821 42.4105 14 37.1282 14C31.8459 14 27.5638 18.2821 27.5638 23.5644C27.5638 28.8467 31.8459 33.1289 37.1282 33.1289Z" stroke="black" stroke-width="5" stroke-linecap="round" stroke-linejoin="round"/>
</svg>
